<svg xmlns="http://www.w3.org/2000/svg" width="1016" height="460" font-family="sans-serif" font-size="12">
<rect width="1016" height="460" fill="white"/>
<line x1="60" y1="400.0" x2="700" y2="400.0" stroke="#e5e7eb"/>
<text x="52" y="404.0" text-anchor="end">0.0</text>
<line x1="60" y1="332.0" x2="700" y2="332.0" stroke="#e5e7eb"/>
<text x="52" y="336.0" text-anchor="end">13.4</text>
<line x1="60" y1="264.0" x2="700" y2="264.0" stroke="#e5e7eb"/>
<text x="52" y="268.0" text-anchor="end">26.7</text>
<line x1="60" y1="196.0" x2="700" y2="196.0" stroke="#e5e7eb"/>
<text x="52" y="200.0" text-anchor="end">40.1</text>
<line x1="60" y1="128.0" x2="700" y2="128.0" stroke="#e5e7eb"/>
<text x="52" y="132.0" text-anchor="end">53.5</text>
<line x1="60" y1="60.0" x2="700" y2="60.0" stroke="#e5e7eb"/>
<text x="52" y="64.0" text-anchor="end">66.9</text>
<text x="60.0" y="420" text-anchor="middle">cpu=1</text>
<text x="380.0" y="420" text-anchor="middle">cpu=4</text>
<text x="700.0" y="420" text-anchor="middle">cpu=8</text>
<text x="20" y="40">ns/op</text>
<polyline points="60.0,222.3 380.0,223.9 700.0,221.8" fill="none" stroke="#3b82f6" stroke-width="2"/>
<line x1="60.0" y1="223.8" x2="60.0" y2="220.7" stroke="#3b82f6" stroke-width="1"/>
<circle cx="60.0" cy="222.3" r="3" fill="#3b82f6"/>
<line x1="380.0" y1="229.0" x2="380.0" y2="209.0" stroke="#3b82f6" stroke-width="1"/>
<circle cx="380.0" cy="223.9" r="3" fill="#3b82f6"/>
<line x1="700.0" y1="228.7" x2="700.0" y2="208.0" stroke="#3b82f6" stroke-width="1"/>
<circle cx="700.0" cy="221.8" r="3" fill="#3b82f6"/>
<line x1="770" y1="60" x2="790" y2="60" stroke="#3b82f6" stroke-width="2"/>
<text x="794" y="64">BenchmarkCache_Get</text>
<polyline points="60.0,141.9 380.0,248.1 700.0,320.2" fill="none" stroke="#ef4444" stroke-width="2"/>
<line x1="60.0" y1="151.9" x2="60.0" y2="96.9" stroke="#ef4444" stroke-width="1"/>
<circle cx="60.0" cy="141.9" r="3" fill="#ef4444"/>
<line x1="380.0" y1="270.3" x2="380.0" y2="198.4" stroke="#ef4444" stroke-width="1"/>
<circle cx="380.0" cy="248.1" r="3" fill="#ef4444"/>
<line x1="700.0" y1="323.2" x2="700.0" y2="317.9" stroke="#ef4444" stroke-width="1"/>
<circle cx="700.0" cy="320.2" r="3" fill="#ef4444"/>
<line x1="770" y1="78" x2="790" y2="78" stroke="#ef4444" stroke-width="2"/>
<text x="794" y="82">BenchmarkCache_Get_Parallel</text>
<polyline points="60.0,189.3 380.0,185.7 700.0,187.1" fill="none" stroke="#10b981" stroke-width="2"/>
<line x1="60.0" y1="193.0" x2="60.0" y2="184.3" stroke="#10b981" stroke-width="1"/>
<circle cx="60.0" cy="189.3" r="3" fill="#10b981"/>
<line x1="380.0" y1="187.2" x2="380.0" y2="183.8" stroke="#10b981" stroke-width="1"/>
<circle cx="380.0" cy="185.7" r="3" fill="#10b981"/>
<line x1="700.0" y1="190.3" x2="700.0" y2="183.9" stroke="#10b981" stroke-width="1"/>
<circle cx="700.0" cy="187.1" r="3" fill="#10b981"/>
<line x1="770" y1="96" x2="790" y2="96" stroke="#10b981" stroke-width="2"/>
<text x="794" y="100">BenchmarkCache_Set</text>
<polyline points="60.0,104.3 380.0,125.3 700.0,244.3" fill="none" stroke="#f59e0b" stroke-width="2"/>
<line x1="60.0" y1="110.5" x2="60.0" y2="96.9" stroke="#f59e0b" stroke-width="1"/>
<circle cx="60.0" cy="104.3" r="3" fill="#f59e0b"/>
<line x1="380.0" y1="165.9" x2="380.0" y2="12.8" stroke="#f59e0b" stroke-width="1"/>
<circle cx="380.0" cy="125.3" r="3" fill="#f59e0b"/>
<line x1="700.0" y1="256.6" x2="700.0" y2="236.6" stroke="#f59e0b" stroke-width="1"/>
<circle cx="700.0" cy="244.3" r="3" fill="#f59e0b"/>
<line x1="770" y1="114" x2="790" y2="114" stroke="#f59e0b" stroke-width="2"/>
<text x="794" y="118">BenchmarkCache_Set_Parallel</text>
</svg>